<svg xmlns="http://www.w3.org/2000/svg" viewBox="0 0 401 212">
  <defs>
    <style>
      .e35f6523-3fe1-425c-befb-66921fe55a82 {
        fill: #dbb900;
      }

      .a1012bf1-31c3-4250-9e75-c70347052a3d {
        fill: #0c0a00;
      }

      .b42b3636-5bd5-4832-a1fb-06ad96b522ed {
        fill: #050400;
      }

      .b12b0d25-26a4-4c51-a187-651dac6316dd {
        fill: #dab800;
      }
    </style>
  </defs>
  <title>cihook_logo</title>
  <g id="ff5685cd-9b38-4f11-b92f-44af55e957ec" data-name="Layer 2">
    <g id="b50c3272-88ee-4758-ac00-aa1892275b18" data-name="Layer 1">
      <g>
        <path class="e35f6523-3fe1-425c-befb-66921fe55a82" d="M401,212H0V0H401ZM248.14139,102.90337c0,1.56006.0025,3.12013-.00037,4.68018-.0278,15.15945-.08632,30.31893-.07606,45.47837.00912,13.466-5.38784,24.48-16.25983,32.08441-13.05457,9.131-27.36342,10.23418-41.602,2.75025-13.68911-7.19512-20.69989-19.2313-20.90975-34.47278-.44265-32.14764-.21779-64.30418-.36719-96.4566-.0128-2.75727.88313-3.8962,3.49086-5.02054,8.40852-3.62537,14.42985-9.32047,15.132-19.27779.70146-9.9474-2.80063-17.4268-11.51081-22.58514-7.84672-4.647-15.82748-4.50339-23.1929.05136-7.76649,4.80276-12.529,12.10359-11.57335,21.7409.90833,9.16026,5.86129,16.00431,14.342,19.43566,3.94283,1.59528,5.15641,3.37429,5.14276,7.48625-.10339,31.15268.116,62.30629.07425,93.45939-.02986,22.27307,12.70331,38.80385,30.43732,45.53109,32.07561,12.16764,65.35629-10.75232,65.82443-45.11.13388-9.8269-.65991-19.70973.13926-29.47132C257.93646,114.60246,252.98074,109.09575,248.14139,102.90337ZM96.48625,82.1586v94.55716h11.41191c0-1.95928,0-3.59433,0-5.2294,0-13.65129.13706-27.30492-.09479-40.95226-.059-3.47612,1.02945-5.73941,3.94413-7.25547,2.93445-1.52636,5.79188-3.36812,8.91092-4.34164,10.31114-3.21835,16.91432,1.2366,17.25706,11.96895.42493,13.30594.27243,26.63038.36484,39.94686.0135,1.9442.00188,3.88856.00188,5.88392h11.53143c0-16.2556.74585-32.24975-.19-48.14489-1.15317-19.58625-18.57518-27.71932-35.243-17.20532-2.03149,1.28147-3.9806,2.69354-6.66341,4.51811V82.1586ZM350.89832,177.845c0-8.07976.172-16.17054-.07517-24.24848-.11722-3.831,1.26419-6.21708,4.842-7.823,7.63754,9.84143,15.1387,19.5965,22.777,29.243,1.02011,1.2883,2.66449,2.738,4.14084,2.88336,4.032.397,8.12869.13663,13.2731.13663-10.98041-13.71884-21.23285-26.52812-32.58881-40.71616,9.4524-8.72859,18.9093-17.46132,28.90216-26.689-9.4161-1.81148-16.6315-1.09287-21.57092,6.79142-1.47409,2.353-3.8093,4.167-5.753,6.225-4.37488,4.63219-8.75165,9.26257-14.04761,14.86726v-55.253h-11.342V177.845Zm-22.402-32.66776c-.2146-3.73071-.27051-6.23111-.51544-8.71286-1.59134-16.12535-12.40824-27.44356-27.10264-28.41381-16.76718-1.10711-28.92337,7.8117-32.16525,24.68638a67.91142,67.91142,0,0,0-.48361,20.30632c1.84335,15.952,13.075,26.417,27.81342,26.94137,16.61312.5911,27.72836-8.10316,31.21942-24.65428A100.97109,100.97109,0,0,0,328.49631,145.17723Zm-88.89553-.10594.60674-.202c-1.30086-5.96406-1.9825-12.15107-4.03267-17.84535-4.148-11.52117-14.17419-17.93-26.68344-18.03-12.94922-.10353-22.88376,6.142-27.67348,17.49239-3.95178,9.36473-4.24992,19.15337-2.43924,28.92993,2.99381,16.16448,13.80309,25.4642,29.05309,25.58951,15.89586.13064,26.53659-8.69449,29.92425-25.05454C239.0932,152.39136,239.20239,148.70137,239.60078,145.07129Zm-183.33393-20.533c.678-14.78928,2.21338-12.43-9.59973-16.04177-18.1632-5.55327-34.46022,2.7096-39.88453,19.93327a48.2965,48.2965,0,0,0,1.20023,33.23958,26.02594,26.02594,0,0,0,17.50683,15.80609c9.90385,2.97308,19.41863,1.62141,28.60093-2.72824,1.02732-.48664,2.30837-1.72,2.38774-2.69536.28767-3.53528.11336-7.10817.11336-10.7509-4.31156,2.27142-7.80661,4.62521-11.64715,6.0434C31.47518,172.3181,20.11075,166.31473,17.616,152.2075a52.34209,52.34209,0,0,1,.44829-19.7163c2.79378-12.90341,13.41957-18.33883,25.90848-13.96421C48.1405,119.98686,51.97263,122.4049,56.26685,124.53828Zm11.52487-15.40934v67.57318H78.74558V109.12894Zm11.9188-11.34325V86.37511H67.0463V97.78569Z"/>
        <path class="a1012bf1-31c3-4250-9e75-c70347052a3d" d="M248.14139,102.90337c4.83935,6.19238,9.79507,11.69909,9.09064,20.30367-.79917,9.76159-.00538,19.64442-.13926,29.47132-.46814,34.3577-33.74882,57.27766-65.82443,45.11-17.734-6.72724-30.46718-23.258-30.43732-45.53109.04175-31.1531-.17764-62.30671-.07425-93.45939.01365-4.112-1.19993-5.891-5.14276-7.48625-8.48075-3.43135-13.43371-10.2754-14.342-19.43566-.95566-9.63731,3.80686-16.93814,11.57335-21.7409,7.36542-4.55475,15.34618-4.69834,23.1929-.05136,8.71018,5.15834,12.21227,12.63774,11.51081,22.58514-.70214,9.95732-6.72347,15.65242-15.132,19.27779-2.60773,1.12434-3.50366,2.26327-3.49086,5.02054.1494,32.15242-.07546,64.309.36719,96.4566.20986,15.24148,7.22064,27.27766,20.90975,34.47278,14.23859,7.48393,28.54744,6.38076,41.602-2.75025,10.872-7.60444,16.269-18.61838,16.25983-32.08441-.01026-15.15944.04826-30.31892.07606-45.47837C248.14389,106.0235,248.14139,104.46343,248.14139,102.90337ZM150.21373,29.63524c-.13637,8.76534,5.88133,15.0858,14.39241,15.11651a14.97905,14.97905,0,0,0,14.59474-14.68151c-.00255-7.641-6.71213-14.56723-14.16589-14.62327C156.56194,15.38326,150.34283,21.33676,150.21373,29.63524Z"/>
        <path class="b42b3636-5bd5-4832-a1fb-06ad96b522ed" d="M96.48625,82.1586h11.231v33.746c2.68281-1.82457,4.63192-3.23664,6.66341-4.51811,16.66778-10.514,34.08979-2.38093,35.243,17.20532.93585,15.89514.19,31.88929.19,48.14489H138.2822c0-1.99536.01162-3.93972-.00188-5.88392-.09241-13.31648.06009-26.64092-.36484-39.94686-.34274-10.73235-6.94592-15.1873-17.25706-11.96895-3.119.97352-5.97647,2.81528-8.91092,4.34164-2.91468,1.51606-4.00318,3.77935-3.94413,7.25547.23185,13.64734.09482,27.301.09479,40.95226,0,1.63507,0,3.27012,0,5.2294H96.48625Z"/>
        <path class="b42b3636-5bd5-4832-a1fb-06ad96b522ed" d="M350.89832,177.845H339.45587V83.26205h11.342v55.253c5.296-5.60469,9.67273-10.23507,14.04761-14.86726,1.94372-2.05806,4.27893-3.87208,5.753-6.225,4.93942-7.88429,12.15482-8.6029,21.57092-6.79142-9.99286,9.22769-19.44976,17.96042-28.90216,26.689,11.356,14.188,21.6084,26.99732,32.58881,40.71616-5.14441,0-9.24112.26039-13.2731-.13663-1.47635-.14537-3.12073-1.59506-4.14084-2.88336-7.63828-9.64645-15.13944-19.40152-22.777-29.243-3.57779,1.6059-4.9592,3.99194-4.842,7.823C351.07028,161.67445,350.89832,169.76523,350.89832,177.845Z"/>
        <path class="b42b3636-5bd5-4832-a1fb-06ad96b522ed" d="M328.49631,145.17723a100.97109,100.97109,0,0,1-1.2341,10.15312c-3.49106,16.55112-14.6063,25.24538-31.21942,24.65428-14.73838-.52439-25.97007-10.98938-27.81342-26.94137a67.91142,67.91142,0,0,1,.48361-20.30632c3.24188-16.87468,15.39807-25.79349,32.16525-24.68638,14.6944.97025,25.5113,12.28846,27.10264,28.41381C328.2258,138.94612,328.28171,141.44652,328.49631,145.17723Zm-11.41053-1.325c-1.04608-5.05412-1.58148-10.40935-3.31353-15.34461-2.45148-6.98526-8.057-10.3312-15.43927-10.44436-7.5586-.11585-13.40723,3.06064-16.17566,10.18156a42.39547,42.39547,0,0,0-.04593,31.17327c2.75287,7.24078,8.71265,10.77861,16.45523,10.519,7.62729-.25574,13.07956-3.97251,15.45117-11.18033C315.5535,154.08946,316.05,149.0802,317.08578,143.85219Z"/>
        <path class="b42b3636-5bd5-4832-a1fb-06ad96b522ed" d="M239.60078,145.07129c-.39839,3.63008-.50758,7.32007-1.24475,10.88-3.38766,16.36005-14.02839,25.18518-29.92425,25.05454-15.25-.12531-26.05928-9.425-29.05309-25.58951-1.81068-9.77656-1.51254-19.5652,2.43924-28.92993,4.78972-11.3504,14.72426-17.59592,27.67348-17.49239,12.50925.1,22.5354,6.5088,26.68344,18.03,2.05017,5.69428,2.73181,11.88129,4.03267,17.84535Zm-11.51527-.17259c-1.042-5.059-1.57683-10.41246-3.29826-15.35239-2.43647-6.99181-8.03-10.35381-15.41237-10.48264-7.55622-.13188-13.42432,3.02585-16.20163,10.14232a42.4006,42.4006,0,0,0-.07649,31.1725c2.74726,7.25483,8.69117,10.804,16.42752,10.55979,7.6259-.24075,13.09362-3.93868,15.47976-11.14246C226.54877,155.13225,227.04579,150.12163,228.08551,144.8987Z"/>
        <path class="b42b3636-5bd5-4832-a1fb-06ad96b522ed" d="M56.26685,124.53828c-4.29422-2.13338-8.12635-4.55142-12.2941-6.01129-12.48891-4.37462-23.1147,1.0608-25.90848,13.96421a52.34209,52.34209,0,0,0-.44829,19.7163c2.49477,14.10723,13.8592,20.1106,27.32855,15.13685,3.84054-1.41819,7.33559-3.772,11.64715-6.0434,0,3.64273.17431,7.21562-.11336,10.7509-.07937.97531-1.36042,2.20872-2.38774,2.69536-9.1823,4.34965-18.69708,5.70132-28.60093,2.72824A26.02594,26.02594,0,0,1,7.98282,161.66936a48.2965,48.2965,0,0,1-1.20023-33.23958c5.42431-17.22367,21.72133-25.48654,39.88453-19.93327C58.48023,112.10828,56.94484,109.749,56.26685,124.53828Z"/>
        <path class="a1012bf1-31c3-4250-9e75-c70347052a3d" d="M67.79172,109.12894H78.74558v67.57318H67.79172Z"/>
        <path class="b42b3636-5bd5-4832-a1fb-06ad96b522ed" d="M79.71052,97.78569H67.0463V86.37511H79.71052Z"/>
        <path class="b12b0d25-26a4-4c51-a187-651dac6316dd" d="M150.21373,29.63524c.1291-8.29848,6.34821-14.252,14.82126-14.18827,7.45376.056,14.16334,6.98226,14.16589,14.62327a14.97905,14.97905,0,0,1-14.59474,14.68151C156.09506,44.721,150.07736,38.40058,150.21373,29.63524Z"/>
        <path class="b12b0d25-26a4-4c51-a187-651dac6316dd" d="M317.08578,143.85219c-1.03582,5.228-1.53228,10.23727-3.068,14.90457-2.37161,7.20782-7.82388,10.92459-15.45117,11.18033-7.74258.25957-13.70236-3.27826-16.45523-10.519a42.39547,42.39547,0,0,1,.04593-31.17327c2.76843-7.12092,8.61706-10.29741,16.17566-10.18156,7.38226.11316,12.98779,3.4591,15.43927,10.44436C315.5043,133.44284,316.0397,138.79807,317.08578,143.85219Z"/>
        <path class="b12b0d25-26a4-4c51-a187-651dac6316dd" d="M228.08551,144.8987c-1.03972,5.22293-1.53674,10.23355-3.08147,14.89712-2.38614,7.20378-7.85386,10.90171-15.47976,11.14246-7.73635.24425-13.68026-3.305-16.42752-10.55979a42.4006,42.4006,0,0,1,.07649-31.1725c2.77731-7.11647,8.64541-10.2742,16.20163-10.14232,7.38234.12883,12.9759,3.49083,15.41237,10.48264C226.50868,134.48624,227.04353,139.83966,228.08551,144.8987Z"/>
      </g>
    </g>
  </g>
</svg>
